# xmcd
#
# Track frame offsets:
#   150
#   24027
#   48837
#   70012
#   94120
#   117686
#   139042
#   158907
#   181472
#   206280
#
# Disc length: 3016 seconds
#
# Revision: 0
# Processed by: cddbd v1.5.2PL0 Copyright (c) Steve Scherf et al.
# Submitted via: GXTranscoder 2.0.1939
#
DISCID=7e0bc60a
DTITLE=mana - revolution de amor
DYEAR=1900
DGENRE=Latin
TTITLE0=trac1
TTITLE1=trac2
TTITLE2=trac3
TTITLE3=trac4
TTITLE4=trac5
TTITLE5=trac6
TTITLE6=trac7
TTITLE7=trac8
TTITLE8=trac9
TTITLE9=trac10
EXTD=
EXTT0=
EXTT1=
EXTT2=
EXTT3=
EXTT4=
EXTT5=
EXTT6=
EXTT7=
EXTT8=
EXTT9=
PLAYORDER=
